/* XPM */
static char *_65c3e8aad3040e0f78c46ee321136584S25czjUJMqTu82S[] = {
/* columns rows colors chars-per-pixel */
"32 32 4 1 ",
"  c gray20",
". c #777777",
"X c #979797",
"o c #CBCBCB",
/* pixels */
"ooooooooo oooooooooooooooo ooooo",
"XXXXXXXXo .XXXXXXXXXXXXXXo .XXXX",
"XXXXXXXXo .XXXXXXXXXXXXXXo .XXXX",
"XXXXXXXXo .XXXXXXXXXXXXXXo .XXXX",
"XXXXXXXXo .XXXXXXXXXXXXXXo .XXXX",
"XXXXXXXXo .XXXXXXXXXXXXXXo .XXXX",
"........o ...............o .....",
"                                ",
"ooooooo oooooooooooooooo ooooooo",
"XXXXXXo .XXXXXXXXXXXXXXo .XXXXXX",
"XXXXXXo .XXXXXXXXXXXXXXo .XXXXXX",
"XXXXXXo .XXXXXXXXXXXXXXo .XXXXXX",
"XXXXXXo .XXXXXXXXXXXXXXo .XXXXXX",
"XXXXXXo .XXXXXXXXXXXXXXo .XXXXXX",
"......o ...............o .......",
"                                ",
"oooooooo oooooooooooooooo oooooo",
"XXXXXXXo .XXXXXXXXXXXXXXo .XXXXX",
"XXXXXXXo .XXXXXXXXXXXXXXo .XXXXX",
"XXXXXXXo .XXXXXXXXXXXXXXo .XXXXX",
"XXXXXXXo .XXXXXXXXXXXXXXo .XXXXX",
"XXXXXXXo .XXXXXXXXXXXXXXo .XXXXX",
".......o ...............o ......",
"                                ",
"oooooo oooooooooooooooo oooooooo",
"XXXXXo .XXXXXXXXXXXXXXo .XXXXXXX",
"XXXXXo .XXXXXXXXXXXXXXo .XXXXXXX",
"XXXXXo .XXXXXXXXXXXXXXo .XXXXXXX",
"XXXXXo .XXXXXXXXXXXXXXo .XXXXXXX",
"XXXXXo .XXXXXXXXXXXXXXo .XXXXXXX",
".....o ...............o ........",
"                                "
};
