/* XPM */
static char *_46616dcd6ae4f05ff17581d9269198dmVEA9K0X94kk04KK[] = {
/* columns rows colors chars-per-pixel */
"32 32 15 1 ",
"  c None",
". c #66333D",
"X c #372840",
"o c #3D3957",
"O c #57404E",
"+ c #911D55",
"@ c #BF2651",
"# c #F54F4F",
"$ c #728794",
"% c #C7B198",
"& c #A7B8C2",
"* c #DFD3C3",
"= c #C6DBDE",
"- c #DFEDED",
"; c #F0ECE2",
/* pixels */
"                 X              ",
"   X          XXX-X             ",
"  X-X        X@-@-X             ",
" X=#=X      X&&&&#&X            ",
"X&+@+&X     XooooooX            ",
" X&.&X      X@@;*;*X            ",
"  X&X       X@@XX*XX            ",
"  X&X       X@@**X*X            ",
"  XXX    XXXX@@%*X%X            ",
"  X*X   X---X@@O%%OXXX       X  ",
" X*%*X X-=&&=X@@OO+X==X   X X;X ",
" X%*%XX-=&XXXX..++..X&=X X;X;*X ",
" X*%*XXXXX+X.-----=.+XXX X*%*%X ",
" X%X%X X@@X.--=====&X@X  X%*%X  ",
"  X&X=X@@+X.-=$$$$$&X+@XX=X%X   ",
"  X&X&=@++X.-$&&&&&$.X+@=&&X    ",
"  X&XX&++.X.$&$$$$$$.X.+&&X     ",
"  X&X X...X.o&oooo$o.X..&X      ",
"  X&X  XoX...X..+..X.XooX       ",
"  X&X   XX..X.X+.+XX.XXX        ",
"  X&X    X..X.+X.X+X.XX         ",
"  X&X    XoX++..X+.XoX          ",
"  X&X    X.X...X+X.X.X          ",
"  X&X    XoXoo++X+oXoX          ",
"  X&X    XoX++XXXX+XoX          ",
"  X&X    XXXXXXoXoXXXX          ",
"  X&X   XXoXoXoXoXXoXX          ",
"  X&X   XoXoXoXoXoXXoX          ",
"  X&X   XXoXXoXoXoXoXX          ",
"  X&X   XoXoXoXoXoXXoXX         ",
"  X&X   XX&XoXoXoXoXX$XX        ",
"  X&X   X&X&XXXXXXXX$X$$X       "
};
