/* XPM */
static char *_a57960081f44bfe8eedb085e4f1f612toc6rOlCdRBgBNZj[] = {
/* columns rows colors chars-per-pixel */
"30 30 66 1 ",
"  c None",
". c black",
"X c #080103",
"o c #AF3734",
"O c #DC6916",
"+ c #FF7F23",
"@ c #FF7D25",
"# c #FF742B",
"$ c #FF7929",
"% c #FE6338",
"& c #F9663C",
"* c #817B50",
"= c #FF5643",
"- c #FF5744",
"; c #FF5647",
": c #FF5349",
"> c #FF594A",
", c #FF775A",
"< c #FF8031",
"1 c #FF8F31",
"2 c #DFCA00",
"3 c #DFCB00",
"4 c #E0CC00",
"5 c #E0CD00",
"6 c #E1CD00",
"7 c #E1CE00",
"8 c #E2CF00",
"9 c #E2CF06",
"0 c #E2D007",
"q c #E4D205",
"w c #E5D405",
"e c #E8D800",
"r c #E8D900",
"t c #E9DA00",
"y c #E9DB00",
"u c #EADB00",
"i c #EADC00",
"p c #EBDD00",
"a c #ECDF00",
"s c #EDDF00",
"d c #E2D008",
"f c #EEE100",
"g c #EEE200",
"h c #EFE200",
"j c #EFE300",
"k c #878154",
"l c #A79453",
"z c #FF8A61",
"x c #FFB771",
"c c #FFBD71",
"v c #F4E66E",
"b c #FFE47A",
"n c #F6E97D",
"m c #FBEF96",
"M c #FBEF98",
"N c #FBF09A",
"B c #FBF09B",
"V c #FCF099",
"C c #FBF8B1",
"Z c #FBF9B4",
"A c #FFFDB4",
"S c #FFFFB7",
"D c #FEFDC3",
"F c #FEFDC4",
"G c #FFFEC8",
"H c #FFFEC9",
/* pixels */
"                              ",
"               1$             ",
"              <b-#            ",
"             @>c,=+           ",
"             @:zx-+           ",
"             @&lo%            ",
"              O.X             ",
"               *k             ",
"              VSSm            ",
"              BHFM            ",
"              BHDM            ",
"              BFDM            ",
"              BHDM            ",
"              BHDm            ",
"              BHDm            ",
"             0nZZv6           ",
"            qiqd0wi6          ",
"           3ijjjjjje          ",
"            3ijjjje3          ",
"             3ijje3           ",
"              3ja3            ",
"              3ja3            ",
"              3ja4            ",
"              3ja4            ",
"              6ja4            ",
"              3ja4            ",
"              3ja3            ",
"             6ijhu4           ",
"            3ijjjju3          ",
"            36666663          "
};
