/* XPM */
static char *result[] = {
/* columns rows colors chars-per-pixel */
"32 30 90 1 ",
"  c #77571D",
". c #79571E",
"X c #7D5D1D",
"o c #7F601D",
"O c #815E1D",
"+ c #82621E",
"@ c #856420",
"# c #8B6620",
"$ c #8C6922",
"% c #906720",
"& c #936C23",
"* c #9B6F24",
"= c #967125",
"- c #9B7326",
"; c #9E7827",
": c #9E7729",
"> c #9F792A",
", c #9A7432",
"< c #A17426",
"1 c #A37728",
"2 c #AB7728",
"3 c #A47B2A",
"4 c #AB7C2A",
"5 c #B37E2B",
"6 c #BA7C2B",
"7 c #A67D39",
"8 c #AD812C",
"9 c #B3832C",
"0 c #BB852E",
"q c #B5892F",
"w c #BD892F",
"e c #A28532",
"r c #AC8533",
"t c #AF8936",
"y c #B48B32",
"u c #BC8B31",
"i c #BF9633",
"p c #B19738",
"a c #BE943A",
"s c #C2842E",
"d c #C6882F",
"f c #C18C31",
"g c #CA8D32",
"h c #D38B32",
"j c #C49233",
"k c #CC9434",
"l c #C59C36",
"z c #CB9C36",
"x c #C3933A",
"c c #D49334",
"v c #D49C37",
"b c #DC9936",
"n c #D49F38",
"m c #D89F38",
"M c #E09235",
"N c #CAA13A",
"B c #CEA93B",
"V c #D4A53A",
"C c #DCA43A",
"Z c #D7AD3C",
"A c #DBAD3D",
"S c #D5B33E",
"D c #DAB23E",
"F c #E3AD3D",
"G c #E3B23E",
"H c #E9B23F",
"J c #D3B240",
"K c #DEB740",
"L c #DBBA41",
"P c #CEBD53",
"I c #E3B641",
"U c #E5BC42",
"Y c #EBBB42",
"T c #DFD151",
"R c #EDC145",
"E c #E6CE49",
"W c #EBCB48",
"Q c #F2C144",
"! c #F5DA4E",
"~ c #F8DA4D",
"^ c #E4DA57",
"/ c #F1DB54",
"( c #F7E04F",
") c #F9E14F",
"_ c #F7E852",
"` c #FBED54",
"' c #FEF85D",
"] c #FCF464",
"[ c #FEFD64",
"{ c None",
/* pixels */
"{{{{{{{{{{{{{{{{{{{{{{{{{{{{{{{{",
"{{{{{{{{{{{{{{{{{{{{{{{{{{{{{{{{",
"{{{{{{{{{{{yyu0jfuqut{{{{{{{{{{{",
"{{{{{{{{{yfj0s556ssccyr{{{{{{{{{",
"{{{{{{{rlDk<&&-1=&&1dcjr{{{{{{{{",
"{{{{{{NKZ9&eT^EHICVp=*6ca{{{{{{{",
"{{{{{{EL=&l/`]~GYY~]T8$0ga{{{{{{",
"{{{{{ES-&kRKBLZNVI![[R9&5Ca{{{{{",
"{{{{SL=&wjli8q-*;9D``RCq&iK7{{{{",
"{{{{l3#0q3988890wwzGHNjA3-Gx{{{{",
"{{{88+-d4kQVkshhcfdvVwuVf&jV,{{{",
"{{{8<+9q2F_`)khhMkvYHdqjb33z3{{{",
"{{{;$&q14C)`_j66ssg~~VqdM0&a3{{{",
"{{{=#&9=-8VNi152229DDq48uu&4${{{",
"{{{$#-8$+=;;+&<<<-&=;&&&1q&=@{{{",
"{{{$#19#+&++++&&*+++++++*9&&@{{{",
"{{{@#10$+@o+@O%%%&++OXOX*8&=+{{{",
"{{{@#1u&o+oXXO%%%+XXXXXX<8++o{{{",
"{{{@$=j1+o+@XO%%%%+XXXO+54++X{{{",
"{{{o$$8u$o@@@+$$%+OOOOO*0&+o{{{{",
"{{{{@@=j8+++@&yy9;OOOO&94@+X{{{{",
"{{{{o#@;j4%+XO=--+OOO%4u&+X{{{{{",
"{{{{{@@+3x9&OOOO+OOO&5w-@oX{{{{{",
"{{{{{{+X@;xf2&##%%*2sw=++X{{{{{{",
"{{{{{{{@@o#3ifxuuufq;#++.{{{{{{{",
"{{{{{{{{o@oo@=3r4;=@@oOX{{{{{{{{",
"{{{{{{{{{{oooXoXo++OXX.{{{{{{{{{",
"{{{{{{{{{{{.XOO@OXXX.{{{{{{{{{{{",
"{{{{{{{{{{{{{{{{{{{{{{{{{{{{{{{{",
"{{{{{{{{{{{{{{{{{{{{{{{{{{{{{{{{"
};
