/* XPM */
static char *_fd0c6a41d4540bdd7e31a5b33c88bedQZ3pwc1VyYJd6ccF[] = {
/* columns rows colors chars-per-pixel */
"32 64 8 1 ",
"  c None",
". c #5F1700",
"X c #777777",
"o c #872F00",
"O c #CFB307",
"+ c #DFCB00",
"@ c gray53",
"# c #A7A7A7",
/* pixels */
"                                ",
"                                ",
"                                ",
"                                ",
"           ..........           ",
"         ...ooo.ooo.o..         ",
"       ..oo.ooo.ooo.ooo..       ",
"      ..ooo.ooo.ooo.ooo.o.      ",
"     .o.ooo.ooo.ooo.ooo.oo.     ",
"    .oo.ooo.ooo.ooo.ooo.ooo.    ",
"   .ooo.ooo.ooo.ooo.ooo.ooo..   ",
"  ..ooo.ooo.ooo.ooo.ooo.ooo.o.  ",
"  ..ooo.ooo.ooo.ooo.ooo.ooo.o.  ",
" .o.ooo.ooo.ooo.ooo.ooo.ooo.oo. ",
" .o.ooo.ooo.ooo.ooo.ooo.ooo.oo. ",
".oo.ooo.ooo.ooo.ooo.ooo.ooo.ooo.",
".oo.ooo.ooo.ooo.ooo.ooo.ooo.ooo.",
".oo.ooo.ooo.ooo.ooo.ooo.ooo.ooo.",
".oo.ooo.ooo.ooo.ooo.ooo.ooo.ooo.",
".oo.ooo.ooo.ooo.ooo.ooo.ooo.ooo.",
".oo.ooo.ooo.ooo.ooo.ooo.ooo.ooo.",
".oo.ooo.ooo.ooo.ooo.ooo.ooo.ooo.",
"XXXXXXXXXXXXXXXXXXXXXXXXXXXXXXXX",
"X###XX#########XX#########XX###X",
"X##X@@X#######X@@X#######X@@X##X",
"X##X@@X#######X@@X#######X@@X##X",
"X###XX#########XX#########XX###X",
"XXXXXXXXXXXXXXXXXXXXXXXXXXXXXXXX",
".oo.ooo.ooo.ooo.ooo.ooo.ooo.ooo.",
".oo.ooo.ooo.ooo.ooo.ooo.ooo.ooo.",
".oo.ooo.ooo.ooo.ooo.ooo.ooo.ooo.",
".oo.ooo.ooo.ooo.ooo.ooo.ooo.ooo.",
".oo.ooo.ooo.ooo.ooo.ooo.oOO.ooo.",
".oo.ooo.ooo.ooo.ooo.ooo.O++Oooo.",
".oo.ooo.ooo.ooo.ooo.oooO++++Ooo.",
".oo.ooo.ooo.ooo.ooo.oooO++++Ooo.",
".oo.ooo.ooo.ooo.ooo.oooO++++Ooo.",
".oo.ooo.ooo.ooo.ooo.ooo.O++Oooo.",
".oo.ooo.ooo.ooo.ooo.ooo.oOO.ooo.",
".oo.ooo.ooo.ooo.ooo.ooo.ooo.ooo.",
".oo.ooo.ooo.ooo.ooo.ooo.ooo.ooo.",
".oo.ooo.ooo.ooo.ooo.ooo.ooo.ooo.",
".oo.ooo.ooo.ooo.ooo.ooo.ooo.ooo.",
".oo.ooo.ooo.ooo.ooo.ooo.ooo.ooo.",
".oo.ooo.ooo.ooo.ooo.ooo.ooo.ooo.",
".oo.ooo.ooo.ooo.ooo.ooo.ooo.ooo.",
"XXXXXXXXXXXXXXXXXXXXXXXXXXXXXXXX",
"X###XX#########XX#########XX###X",
"X##X@@X#######X@@X#######X@@X##X",
"X##X@@X#######X@@X#######X@@X##X",
"X###XX#########XX#########XX###X",
"XXXXXXXXXXXXXXXXXXXXXXXXXXXXXXXX",
".oo.ooo.ooo.ooo.ooo.ooo.ooo.ooo.",
".oo.ooo.ooo.ooo.ooo.ooo.ooo.ooo.",
".oo.ooo.ooo.ooo.ooo.ooo.ooo.ooo.",
".oo.ooo.ooo.ooo.ooo.ooo.ooo.ooo.",
".oo.ooo.ooo.ooo.ooo.ooo.ooo.ooo.",
".oo.ooo.ooo.ooo.ooo.ooo.ooo.ooo.",
".oo.ooo.ooo.ooo.ooo.ooo.ooo.ooo.",
".oo.ooo.ooo.ooo.ooo.ooo.ooo.ooo.",
".oo.ooo.ooo.ooo.ooo.ooo.ooo.ooo.",
".oo.ooo.ooo.ooo.ooo.ooo.ooo.ooo.",
".oo.ooo.ooo.ooo.ooo.ooo.ooo.ooo.",
"................................"
};
