/* XPM */
static char *result[] = {
/* columns rows colors chars-per-pixel */
"32 32 10 1 ",
"  c #080000",
". c gray20",
"X c #7B3323",
"o c #434343",
"O c #B30000",
"+ c #974B33",
"@ c #FB6700",
"# c #FFF300",
"$ c gray53",
"% c None",
/* pixels */
"%%%%%%%%%%%%%%%%%%%%%%%%%%%%%%%%",
"%%%%%%%%%%%%%%%%%%%%%%%%%%%%%%%%",
"%%%%%%%%%%%%%%%%%%%%%%%%%%%%%%%%",
"%%%%%%%%%%%%%%%%%%%%%%%%%%%%%%%%",
"%%%%%%%%%%%%%%O%%%O%%%%%%%%%%%%%",
"%%%%%%%%%%%%%O@O%O@O%%%%%%%%%%%%",
"%%%%%%%%%%%%O@@@O@@@O%%%%%%%%%%%",
"%%%%%%%%%%%%O@@@@@@@O%%%%%%%%%%%",
"%%%%%%%%%%%O@@@@#@@@O%%%%%%%%%%%",
"%%%%%%%%%%%O@@@###@@@O%%%%%%%%%%",
"%%%%%%%%%%%%O@@@###@O%%%%%%%%%%%",
"%%%%%%%%%%%%O@@  #@@O%%%%%%%%%%%",
"%%%%%%%%%%%%O@ oo o@O%%%%%%%%%%%",
"%%%%%%%%%%%%% o o  @O%%%%%%%%%%%",
"%%%%%%%%%%%%%  o oo %%%%%%%%%%%%",
"%%%%%%%%%%%%%%  o  %%%%%%%%%%%%%",
"%%%%%%%%%%%%%%%X X%%%%%%%%%%%%%%",
"%%%%%%%%%%%%%%%X+X%%%%%%%%%%%%%%",
"%%%%%%%%%%%%%%%X+X%%%%%%%%%%%%%%",
"%%%%%%%%%%%%%%%X+X%%%%%%%%%%%%%%",
"%%%%%%%%%%%%%%%X+X%%%%%%%%%%%%%%",
"%%%%%%%%%%%%%%%X+X%%%%%%%%%%%%%%",
"%%%%%%%%%%%%%%oX+Xo%%%%%%%%%%%%%",
"%%%%%%%%%%%%%o$X+X$o%%%%%%%%%%%%",
"%%%%%%%%%%%%%o$X+X$o%%%%%%%%%%%%",
"%%%%%%%%%%%%o.o$X$o.o%%%%%%%%%%%",
"%%%%%%%%%%%%o..ooo..o%%%%%%%%%%%",
"%%%%%%%%%%%%o.......o%%%%%%%%%%%",
"%%%%%%%%%%%%%o.....o%%%%%%%%%%%%",
"%%%%%%%%%%%%%%o...o%%%%%%%%%%%%%",
"%%%%%%%%%%%%%%%o.o%%%%%%%%%%%%%%",
"%%%%%%%%%%%%%%%%o%%%%%%%%%%%%%%%"
};
